<svg xmlns="http://www.w3.org/2000/svg" viewBox="0 0 300 300"><defs><style>.cls-1,.cls-3{fill:#5e5e5e;}.cls-2,.cls-5{fill:#fff;}.cls-3,.cls-5{font-size:40px;font-family:Gabriola;letter-spacing:0.14em;}.cls-3{stroke:#5e5e5e;stroke-miterlimit:10;}.cls-4{letter-spacing:0.2em;}.cls-5{stroke:#fff;}</style></defs><title>LoganLogo</title><g id="Logo_5" data-name="Logo 5"><path class="cls-1" d="M156.2,187a45.06,45.06,0,0,1,4.32-9.74c.83-1.58,1.86-3,2.82-4.55s2.09-2.9,3.13-4.36a102.56,102.56,0,0,1,15-15.35,138.31,138.31,0,0,1,17.49-12.45l4.68-2.63c1.58-.85,3.1-1.79,4.73-2.53l9.6-4.66c12.61-5.84,24.28-13.81,33.5-24.18a76.83,76.83,0,0,0,6.39-8.21,74.91,74.91,0,0,0,5.3-9,72.56,72.56,0,0,0,4-9.68,55.23,55.23,0,0,0,2.44-10.27A46.79,46.79,0,0,1,268.28,80,67.49,67.49,0,0,1,265,90.18,74.11,74.11,0,0,1,254,108.65a75.52,75.52,0,0,1-7.36,7.92c-1.29,1.27-2.68,2.41-4,3.61s-2.8,2.28-4.24,3.36a112.79,112.79,0,0,1-18.58,11L210.2,139c-1.6.71-3.1,1.62-4.64,2.43L200.94,144c-1.5.88-3,1.8-4.48,2.7s-3,1.77-4.43,2.79l-4.33,3c-1.45,1-2.79,2.09-4.2,3.12a114.21,114.21,0,0,0-15.45,14.13c-1.13,1.33-2.31,2.63-3.4,4s-2.17,2.75-3.15,4.21A51.76,51.76,0,0,0,156.2,187Z"/><path class="cls-1" d="M185.6,162.83c9.61-4,18.91-8.6,28-13.51,4.52-2.51,9-5,13.38-7.77s8.71-5.5,12.89-8.5,8.33-6,12.3-9.3c2-1.58,4-3.29,5.91-5s3.84-3.42,5.68-5.21a184.21,184.21,0,0,0,20.55-23.2,113.65,113.65,0,0,1-18.22,25.5,151.22,151.22,0,0,1-23.81,20.6,182.45,182.45,0,0,1-27.2,15.75c-4.73,2.24-9.58,4.24-14.48,6.06A124.94,124.94,0,0,1,185.6,162.83Z"/><path class="cls-1" d="M185.6,173.33,210,167.1c4-1.08,8.09-2.1,12.1-3.24s8-2.22,12-3.47,8-2.44,11.88-3.82c2-.64,3.91-1.37,5.87-2.08s3.86-1.49,5.78-2.29a116,116,0,0,0,11.21-5.32,52.13,52.13,0,0,0,10.21-7.15,39.6,39.6,0,0,1-9.1,8.89A82.59,82.59,0,0,1,259,155.18a147.74,147.74,0,0,1-23.68,9.23,230.19,230.19,0,0,1-24.63,5.88A192.22,192.22,0,0,1,185.6,173.33Z"/><path class="cls-1" d="M185.6,188c7.12-.57,14.21-.91,21.28-1.24l21.17-1c7-.41,14.06-.84,21-1.61,3.49-.39,7-.85,10.41-1.52a44.81,44.81,0,0,0,10.1-3,32.25,32.25,0,0,1-9.56,5,79.52,79.52,0,0,1-10.44,2.77,153.52,153.52,0,0,1-21.32,2.56c-7.13.39-14.27.41-21.39.12A173.06,173.06,0,0,1,185.6,188Z"/><path class="cls-1" d="M149.9,187a51.76,51.76,0,0,0-5.3-9.12c-1-1.46-2.09-2.82-3.15-4.21s-2.27-2.67-3.4-4a114.21,114.21,0,0,0-15.45-14.13c-1.41-1-2.75-2.15-4.2-3.12l-4.33-3c-1.41-1-2.94-1.87-4.43-2.79s-3-1.82-4.48-2.7l-4.62-2.49c-1.54-.81-3-1.72-4.64-2.43l-9.53-4.52a112.79,112.79,0,0,1-18.58-11c-1.44-1.08-2.84-2.22-4.24-3.36s-2.75-2.34-4-3.61a75.52,75.52,0,0,1-7.36-7.92A74.11,74.11,0,0,1,41.09,90.18,67.49,67.49,0,0,1,37.82,80,46.79,46.79,0,0,1,36.5,69.38a55.23,55.23,0,0,0,2.44,10.27,72.56,72.56,0,0,0,4,9.68,74.91,74.91,0,0,0,5.3,9,76.83,76.83,0,0,0,6.39,8.21c9.22,10.37,20.89,18.34,33.5,24.18l9.6,4.66c1.63.74,3.15,1.68,4.73,2.53l4.68,2.63A138.31,138.31,0,0,1,124.65,153a102.56,102.56,0,0,1,15,15.35c1,1.46,2.13,2.87,3.13,4.36s2,3,2.82,4.55A45.06,45.06,0,0,1,149.9,187Z"/><path class="cls-1" d="M120.5,162.83a124.94,124.94,0,0,1-15-4.54c-4.9-1.82-9.75-3.82-14.48-6.06a182.45,182.45,0,0,1-27.2-15.75A151.22,151.22,0,0,1,40,115.88,113.65,113.65,0,0,1,21.8,90.38a184.21,184.21,0,0,0,20.55,23.2c1.84,1.79,3.8,3.47,5.68,5.21s3.88,3.38,5.91,5q6,4.91,12.3,9.3c4.18,3,8.5,5.81,12.89,8.5s8.86,5.26,13.38,7.77C101.59,154.23,110.89,158.79,120.5,162.83Z"/><path class="cls-1" d="M120.5,173.33a192.22,192.22,0,0,1-25.09-3,230.19,230.19,0,0,1-24.63-5.88,147.74,147.74,0,0,1-23.68-9.23,82.59,82.59,0,0,1-11-6.56,39.6,39.6,0,0,1-9.1-8.89,52.13,52.13,0,0,0,10.21,7.15,116,116,0,0,0,11.21,5.32c1.92.8,3.86,1.53,5.78,2.29s3.9,1.44,5.87,2.08Q66,158.64,72,160.39c4,1.25,8,2.37,12,3.47s8.06,2.16,12.1,3.24Z"/><path class="cls-1" d="M120.5,188a173.06,173.06,0,0,1-21.29,2c-7.12.29-14.26.27-21.39-.12a153.52,153.52,0,0,1-21.32-2.56,79.52,79.52,0,0,1-10.44-2.77,32.25,32.25,0,0,1-9.56-5,44.81,44.81,0,0,0,10.1,3c3.44.67,6.92,1.13,10.41,1.52,7,.77,14,1.2,21,1.61l21.17,1C106.29,187.12,113.38,187.46,120.5,188Z"/><path class="cls-2" d="M156.05,184.22a43.45,43.45,0,0,1,4.11-9.28c.8-1.51,1.78-2.9,2.69-4.34s2-2.76,3-4.15a97.11,97.11,0,0,1,14.27-14.61A131.77,131.77,0,0,1,196.76,140l4.45-2.5c1.5-.8,3-1.71,4.51-2.41l9.14-4.44c12-5.55,23.12-13.15,31.91-23a74.25,74.25,0,0,0,6.08-7.81A72.8,72.8,0,0,0,261.73,82a52.43,52.43,0,0,0,2.32-9.77,45.14,45.14,0,0,1-1.25,10.07A65.21,65.21,0,0,1,259.68,92a70.49,70.49,0,0,1-10.53,17.59,71.57,71.57,0,0,1-7,7.55c-1.22,1.21-2.55,2.3-3.84,3.44s-2.67,2.16-4,3.19a106.19,106.19,0,0,1-17.7,10.45l-9.07,4.3c-3,1.45-5.86,3.16-8.82,4.69-1.43.84-2.84,1.72-4.27,2.58s-2.87,1.68-4.22,2.66l-4.12,2.81c-1.38.92-2.66,2-4,3a109,109,0,0,0-14.72,13.45c-1.07,1.27-2.2,2.5-3.23,3.81s-2.07,2.62-3,4A49.12,49.12,0,0,0,156.05,184.22Z"/><path class="cls-2" d="M184.05,161.22c9.15-3.85,18-8.19,26.66-12.88,4.3-2.38,8.58-4.79,12.74-7.4s8.3-5.23,12.27-8.09,7.94-5.74,11.72-8.85c1.93-1.51,3.76-3.14,5.63-4.72s3.65-3.26,5.41-5a176.27,176.27,0,0,0,19.57-22.09A108.13,108.13,0,0,1,260.7,116.5,144.71,144.71,0,0,1,238,136.12a174.13,174.13,0,0,1-25.91,15c-4.5,2.13-9.11,4-13.78,5.77A121.58,121.58,0,0,1,184.05,161.22Z"/><path class="cls-2" d="M184.05,171.22l23.23-5.94c3.85-1,7.7-2,11.52-3.09s7.66-2.11,11.44-3.3,7.58-2.33,11.31-3.63,7.44-2.68,11.1-4.17c7.23-3.09,14.45-6.46,20.4-11.87a38,38,0,0,1-8.66,8.46A78.31,78.31,0,0,1,254,153.93a140.61,140.61,0,0,1-22.55,8.79,218.35,218.35,0,0,1-23.45,5.6A182.81,182.81,0,0,1,184.05,171.22Z"/><path class="cls-2" d="M184.05,185.22c6.78-.55,13.53-.88,20.27-1.19l20.16-1c6.7-.39,13.39-.8,20-1.53,3.32-.37,6.63-.81,9.91-1.45a42.24,42.24,0,0,0,9.62-2.83,30.49,30.49,0,0,1-9.11,4.72,74.7,74.7,0,0,1-9.94,2.65A148.16,148.16,0,0,1,224.7,187c-6.79.37-13.59.38-20.37.11A166.42,166.42,0,0,1,184.05,185.22Z"/><path class="cls-2" d="M150.05,184.22a49.12,49.12,0,0,0-5.05-8.69c-.93-1.39-2-2.69-3-4s-2.16-2.54-3.23-3.81a109,109,0,0,0-14.72-13.45c-1.34-1-2.62-2.06-4-3l-4.12-2.81c-1.35-1-2.8-1.79-4.22-2.66s-2.84-1.74-4.27-2.58c-3-1.53-5.82-3.24-8.82-4.69l-9.07-4.3a106.19,106.19,0,0,1-17.7-10.45c-1.37-1-2.71-2.11-4-3.19s-2.62-2.23-3.84-3.44a71.57,71.57,0,0,1-7-7.55A70.49,70.49,0,0,1,46.42,92a65.21,65.21,0,0,1-3.12-9.73,45.14,45.14,0,0,1-1.25-10.07A52.43,52.43,0,0,0,44.37,82a72.8,72.8,0,0,0,8.88,17.79,74.25,74.25,0,0,0,6.08,7.81c8.79,9.88,19.9,17.48,31.91,23l9.14,4.44c1.55.7,3,1.61,4.51,2.41l4.46,2.5A132.38,132.38,0,0,1,126,151.84a97.11,97.11,0,0,1,14.27,14.61c1,1.39,2,2.74,3,4.15s1.89,2.83,2.69,4.34A43.45,43.45,0,0,1,150.05,184.22Z"/><path class="cls-2" d="M122.05,161.22a121.58,121.58,0,0,1-14.28-4.33c-4.67-1.73-9.28-3.64-13.79-5.77a174.54,174.54,0,0,1-25.9-15A144.71,144.71,0,0,1,45.4,116.5,108.13,108.13,0,0,1,28.05,92.22a176.27,176.27,0,0,0,19.57,22.09c1.76,1.71,3.62,3.3,5.41,5s3.7,3.21,5.63,4.72q5.67,4.66,11.72,8.85c4,2.86,8.09,5.53,12.27,8.09s8.44,5,12.74,7.4C104,153,112.9,157.37,122.05,161.22Z"/><path class="cls-2" d="M122.05,171.22a182.81,182.81,0,0,1-23.9-2.9,218.35,218.35,0,0,1-23.45-5.6,140.61,140.61,0,0,1-22.55-8.79,78.31,78.31,0,0,1-10.44-6.25,38,38,0,0,1-8.66-8.46c6,5.41,13.17,8.78,20.4,11.87,3.66,1.49,7.34,2.92,11.1,4.17s7.5,2.52,11.31,3.63,7.6,2.26,11.44,3.3,7.67,2.06,11.52,3.09Z"/><path class="cls-2" d="M122.05,185.22a166.42,166.42,0,0,1-20.28,1.92c-6.78.27-13.58.26-20.37-.11a148.16,148.16,0,0,1-20.3-2.44,74.7,74.7,0,0,1-9.94-2.65,30.49,30.49,0,0,1-9.11-4.72,42.24,42.24,0,0,0,9.62,2.83c3.28.64,6.59,1.08,9.91,1.45,6.65.73,13.34,1.14,20,1.53l20.16,1C108.52,184.34,115.27,184.67,122.05,185.22Z"/><text class="cls-3" transform="translate(127.88 214.3)">L<tspan class="cls-4" x="21.91" y="0">W</tspan></text><text class="cls-5" transform="translate(127.88 211.3)">L<tspan class="cls-4" x="21.91" y="0">W</tspan></text></g></svg>